<svg width="510.9599975585937px" height="125.82496337890625px" xmlns="http://www.w3.org/2000/svg" viewBox="-5.479998779296864 12.087518310546876 510.9599975585937 125.82496337890625" style="background: rgba(13, 144, 181, 0);" preserveAspectRatio="xMidYMid"><defs><linearGradient id="editing-shadow-gradient1" x1="0" x2="0" y1="0" y2="1"><stop offset="0" stop-color="#000000" stop-opacity="0"></stop><stop offset="0.2" stop-color="#000000" stop-opacity="0"></stop><stop offset="1" stop-color="#000000" stop-opacity="1"></stop></linearGradient><linearGradient id="editing-shadow-gradient2" x1="-0.5" x2="1.5" y1="0.5000000000000002" y2="0.4999999999999998"><stop offset="0" stop-color="#06f455"></stop><stop offset="1" stop-color="#03d7e8"></stop></linearGradient><filter id="editing-shadow" x="-100%" y="-100%" width="300%" height="300%"><feGaussianBlur stdDeviation="20"></feGaussianBlur><feComposite operator="in" in2="SourceGraphic"></feComposite><feGaussianBlur stdDeviation="10"></feGaussianBlur></filter></defs><g transform="translate(250,75)"><g transform="translate(-22.9, -0.9)"><g transform="skewX(45)"><g filter="url(#editing-shadow)"><g transform="translate(-143.55500507354736, 28.770000457763672)"><path d="M24.06-44.80L24.06-44.80Q32.64-44.80 37.50-40.70L37.50-40.70L37.50-40.70Q42.37-36.61 42.37-29.44L42.37-29.44L42.37-29.44Q42.37-22.27 37.50-18.21L37.50-18.21L37.50-18.21Q32.64-14.14 24.06-14.14L24.06-14.14L12.03-14.14L12.03 0L7.30 0L7.30-44.80L24.06-44.80ZM23.94-18.30L23.94-18.30Q30.59-18.30 34.11-21.22L34.11-21.22L34.11-21.22Q37.63-24.13 37.63-29.44L37.63-29.44L37.63-29.44Q37.63-34.88 34.11-37.79L34.11-37.79L34.11-37.79Q30.59-40.70 23.94-40.70L23.94-40.70L12.03-40.70L12.03-18.30L23.94-18.30ZM81.66-16.83L81.60-15.42L53.44-15.42L53.44-15.42Q53.82-10.18 57.47-6.94L57.47-6.94L57.47-6.94Q61.12-3.71 66.69-3.71L66.69-3.71L66.69-3.71Q69.82-3.71 72.45-4.83L72.45-4.83L72.45-4.83Q75.07-5.95 76.99-8.13L76.99-8.13L79.55-5.18L79.55-5.18Q77.31-2.50 73.95-1.09L73.95-1.09L73.95-1.09Q70.59 0.32 66.56 0.32L66.56 0.32L66.56 0.32Q61.38 0.32 57.38-1.89L57.38-1.89L57.38-1.89Q53.38-4.10 51.14-8L51.14-8L51.14-8Q48.90-11.90 48.90-16.83L48.90-16.83L48.90-16.83Q48.90-21.76 51.04-25.66L51.04-25.66L51.04-25.66Q53.18-29.57 56.93-31.74L56.93-31.74L56.93-31.74Q60.67-33.92 65.34-33.92L65.34-33.92L65.34-33.92Q70.02-33.92 73.73-31.74L73.73-31.74L73.73-31.74Q77.44-29.57 79.55-25.70L79.55-25.70L79.55-25.70Q81.66-21.82 81.66-16.83L81.66-16.83ZM65.34-30.02L65.34-30.02Q60.48-30.02 57.18-26.91L57.18-26.91L57.18-26.91Q53.89-23.81 53.44-18.82L53.44-18.82L77.31-18.82L77.31-18.82Q76.86-23.81 73.57-26.91L73.57-26.91L73.57-26.91Q70.27-30.02 65.34-30.02L65.34-30.02ZM107.07-5.31L108.67-2.05L108.67-2.05Q107.39-0.90 105.50-0.29L105.50-0.29L105.50-0.29Q103.62 0.32 101.57 0.32L101.57 0.32L101.57 0.32Q96.83 0.32 94.27-2.24L94.27-2.24L94.27-2.24Q91.71-4.80 91.71-9.47L91.71-9.47L91.71-29.82L85.70-29.82L85.70-33.66L91.71-33.66L91.71-41.02L96.26-41.02L96.26-33.66L106.50-33.66L106.50-29.82L96.26-29.82L96.26-9.73L96.26-9.73Q96.26-6.72 97.76-5.15L97.76-5.15L97.76-5.15Q99.26-3.58 102.08-3.58L102.08-3.58L102.08-3.58Q103.49-3.58 104.80-4.03L104.80-4.03L104.80-4.03Q106.11-4.48 107.07-5.31L107.07-5.31ZM143.74-33.66L148.10-33.66L148.10-4.10L148.10-4.10Q148.10 4.48 143.90 8.61L143.90 8.61L143.90 8.61Q139.71 12.74 131.26 12.74L131.26 12.74L131.26 12.74Q126.59 12.74 122.40 11.36L122.40 11.36L122.40 11.36Q118.21 9.98 115.58 7.55L115.58 7.55L117.89 4.10L117.89 4.10Q120.32 6.27 123.81 7.49L123.81 7.49L123.81 7.49Q127.30 8.70 131.14 8.70L131.14 8.70L131.14 8.70Q137.54 8.70 140.54 5.73L140.54 5.73L140.54 5.73Q143.55 2.75 143.55-3.52L143.55-3.52L143.55-7.81L143.55-7.81Q141.44-4.61 138.02-2.94L138.02-2.94L138.02-2.94Q134.59-1.28 130.43-1.28L130.43-1.28L130.43-1.28Q125.70-1.28 121.82-3.36L121.82-3.36L121.82-3.36Q117.95-5.44 115.74-9.18L115.74-9.18L115.74-9.18Q113.54-12.93 113.54-17.66L113.54-17.66L113.54-17.66Q113.54-22.40 115.74-26.11L115.74-26.11L115.74-26.11Q117.95-29.82 121.79-31.87L121.79-31.87L121.79-31.87Q125.63-33.92 130.43-33.92L130.43-33.92L130.43-33.92Q134.72-33.92 138.18-32.19L138.18-32.19L138.18-32.19Q141.63-30.46 143.74-27.20L143.74-27.20L143.74-33.66ZM130.88-5.31L130.88-5.31Q134.53-5.31 137.47-6.88L137.47-6.88L137.47-6.88Q140.42-8.45 142.05-11.26L142.05-11.26L142.05-11.26Q143.68-14.08 143.68-17.66L143.68-17.66L143.68-17.66Q143.68-21.25 142.05-24.03L142.05-24.03L142.05-24.03Q140.42-26.82 137.50-28.38L137.50-28.38L137.50-28.38Q134.59-29.95 130.88-29.95L130.88-29.95L130.88-29.95Q127.23-29.95 124.32-28.42L124.32-28.42L124.32-28.42Q121.41-26.88 119.78-24.06L119.78-24.06L119.78-24.06Q118.14-21.25 118.14-17.66L118.14-17.66L118.14-17.66Q118.14-14.08 119.78-11.26L119.78-11.26L119.78-11.26Q121.41-8.45 124.32-6.88L124.32-6.88L124.32-6.88Q127.23-5.31 130.88-5.31L130.88-5.31ZM165.18-27.07L165.18-27.07Q166.78-30.46 169.95-32.19L169.95-32.19L169.95-32.19Q173.12-33.92 177.79-33.92L177.79-33.92L177.79-29.50L176.70-29.57L176.70-29.57Q171.39-29.57 168.38-26.30L168.38-26.30L168.38-26.30Q165.38-23.04 165.38-17.15L165.38-17.15L165.38 0L160.83 0L160.83-33.66L165.18-33.66L165.18-27.07ZM198.27-33.92L198.27-33.92Q204.86-33.92 208.38-30.62L208.38-30.62L208.38-30.62Q211.90-27.33 211.90-20.86L211.90-20.86L211.90 0L207.55 0L207.55-5.25L207.55-5.25Q206.02-2.62 203.04-1.15L203.04-1.15L203.04-1.15Q200.06 0.32 195.97 0.32L195.97 0.32L195.97 0.32Q190.34 0.32 187.01-2.37L187.01-2.37L187.01-2.37Q183.68-5.06 183.68-9.47L183.68-9.47L183.68-9.47Q183.68-13.76 186.78-16.38L186.78-16.38L186.78-16.38Q189.89-19.01 196.67-19.01L196.67-19.01L207.36-19.01L207.36-21.06L207.36-21.06Q207.36-25.41 204.93-27.68L204.93-27.68L204.93-27.68Q202.50-29.95 197.82-29.95L197.82-29.95L197.82-29.95Q194.62-29.95 191.68-28.90L191.68-28.90L191.68-28.90Q188.74-27.84 186.62-25.98L186.62-25.98L184.58-29.38L184.58-29.38Q187.14-31.55 190.72-32.74L190.72-32.74L190.72-32.74Q194.30-33.92 198.27-33.92L198.27-33.92ZM196.67-3.26L196.67-3.26Q200.51-3.26 203.26-5.02L203.26-5.02L203.26-5.02Q206.02-6.78 207.36-10.11L207.36-10.11L207.36-15.62L196.80-15.62L196.80-15.62Q188.16-15.62 188.16-9.60L188.16-9.60L188.16-9.60Q188.16-6.66 190.40-4.96L190.40-4.96L190.40-4.96Q192.64-3.26 196.67-3.26L196.67-3.26ZM266.24-33.92L266.24-33.92Q272.58-33.92 276.19-30.27L276.19-30.27L276.19-30.27Q279.81-26.62 279.81-19.52L279.81-19.52L279.81 0L275.26 0L275.26-19.07L275.26-19.07Q275.26-24.32 272.74-27.07L272.74-27.07L272.74-27.07Q270.21-29.82 265.60-29.82L265.60-29.82L265.60-29.82Q260.35-29.82 257.34-26.59L257.34-26.59L257.34-26.59Q254.34-23.36 254.34-17.66L254.34-17.66L254.34 0L249.79 0L249.79-19.07L249.79-19.07Q249.79-24.32 247.26-27.07L247.26-27.07L247.26-27.07Q244.74-29.82 240.06-29.82L240.06-29.82L240.06-29.82Q234.88-29.82 231.84-26.59L231.84-26.59L231.84-26.59Q228.80-23.36 228.80-17.66L228.80-17.66L228.80 0L224.26 0L224.26-33.66L228.61-33.66L228.61-27.52L228.61-27.52Q230.40-30.59 233.60-32.26L233.60-32.26L233.60-32.26Q236.80-33.92 240.96-33.92L240.96-33.92L240.96-33.92Q245.18-33.92 248.29-32.13L248.29-32.13L248.29-32.13Q251.39-30.34 252.93-26.82L252.93-26.82L252.93-26.82Q254.78-30.14 258.27-32.03L258.27-32.03L258.27-32.03Q261.76-33.92 266.24-33.92L266.24-33.92Z" fill="url(#editing-shadow-gradient1)"></path></g></g></g></g><g><g transform="translate(-143.55500507354736, 28.770000457763672)"><path d="M24.06-44.80L24.06-44.80Q32.64-44.80 37.50-40.70L37.50-40.70L37.50-40.70Q42.37-36.61 42.37-29.44L42.37-29.44L42.37-29.44Q42.37-22.27 37.50-18.21L37.50-18.21L37.50-18.21Q32.64-14.14 24.06-14.14L24.06-14.14L12.03-14.14L12.03 0L7.30 0L7.30-44.80L24.06-44.80ZM23.94-18.30L23.94-18.30Q30.59-18.30 34.11-21.22L34.11-21.22L34.11-21.22Q37.63-24.13 37.63-29.44L37.63-29.44L37.63-29.44Q37.63-34.88 34.11-37.79L34.11-37.79L34.11-37.79Q30.59-40.70 23.94-40.70L23.94-40.70L12.03-40.70L12.03-18.30L23.94-18.30ZM81.66-16.83L81.60-15.42L53.44-15.42L53.44-15.42Q53.82-10.18 57.47-6.94L57.47-6.94L57.47-6.94Q61.12-3.71 66.69-3.71L66.69-3.71L66.69-3.71Q69.82-3.71 72.45-4.83L72.45-4.83L72.45-4.83Q75.07-5.95 76.99-8.13L76.99-8.13L79.55-5.18L79.55-5.18Q77.31-2.50 73.95-1.09L73.95-1.09L73.95-1.09Q70.59 0.32 66.56 0.32L66.56 0.32L66.56 0.32Q61.38 0.32 57.38-1.89L57.38-1.89L57.38-1.89Q53.38-4.10 51.14-8L51.14-8L51.14-8Q48.90-11.90 48.90-16.83L48.90-16.83L48.90-16.83Q48.90-21.76 51.04-25.66L51.04-25.66L51.04-25.66Q53.18-29.57 56.93-31.74L56.93-31.74L56.93-31.74Q60.67-33.92 65.34-33.92L65.34-33.92L65.34-33.92Q70.02-33.92 73.73-31.74L73.73-31.74L73.73-31.74Q77.44-29.57 79.55-25.70L79.55-25.70L79.55-25.70Q81.66-21.82 81.66-16.83L81.66-16.83ZM65.34-30.02L65.34-30.02Q60.48-30.02 57.18-26.91L57.18-26.91L57.18-26.91Q53.89-23.81 53.44-18.82L53.44-18.82L77.31-18.82L77.31-18.82Q76.86-23.81 73.57-26.91L73.57-26.91L73.57-26.91Q70.27-30.02 65.34-30.02L65.34-30.02ZM107.07-5.31L108.67-2.05L108.67-2.05Q107.39-0.90 105.50-0.29L105.50-0.29L105.50-0.29Q103.62 0.32 101.57 0.32L101.57 0.32L101.57 0.32Q96.83 0.32 94.27-2.24L94.27-2.24L94.27-2.24Q91.71-4.80 91.71-9.47L91.71-9.47L91.71-29.82L85.70-29.82L85.70-33.66L91.71-33.66L91.71-41.02L96.26-41.02L96.26-33.66L106.50-33.66L106.50-29.82L96.26-29.82L96.26-9.73L96.26-9.73Q96.26-6.72 97.76-5.15L97.76-5.15L97.76-5.15Q99.26-3.58 102.08-3.58L102.08-3.58L102.08-3.58Q103.49-3.58 104.80-4.03L104.80-4.03L104.80-4.03Q106.11-4.48 107.07-5.31L107.07-5.31ZM143.74-33.66L148.10-33.66L148.10-4.10L148.10-4.10Q148.10 4.48 143.90 8.61L143.90 8.61L143.90 8.61Q139.71 12.74 131.26 12.74L131.26 12.74L131.26 12.74Q126.59 12.74 122.40 11.36L122.40 11.36L122.40 11.36Q118.21 9.98 115.58 7.55L115.58 7.55L117.89 4.10L117.89 4.10Q120.32 6.27 123.81 7.49L123.81 7.49L123.81 7.49Q127.30 8.70 131.14 8.70L131.14 8.70L131.14 8.70Q137.54 8.70 140.54 5.73L140.54 5.73L140.54 5.73Q143.55 2.75 143.55-3.52L143.55-3.52L143.55-7.81L143.55-7.81Q141.44-4.61 138.02-2.94L138.02-2.94L138.02-2.94Q134.59-1.28 130.43-1.28L130.43-1.28L130.43-1.28Q125.70-1.28 121.82-3.36L121.82-3.36L121.82-3.36Q117.95-5.44 115.74-9.18L115.74-9.18L115.74-9.18Q113.54-12.93 113.54-17.66L113.54-17.66L113.54-17.66Q113.54-22.40 115.74-26.11L115.74-26.11L115.74-26.11Q117.95-29.82 121.79-31.87L121.79-31.87L121.79-31.87Q125.63-33.92 130.43-33.92L130.43-33.92L130.43-33.92Q134.72-33.92 138.18-32.19L138.18-32.19L138.18-32.19Q141.63-30.46 143.74-27.20L143.74-27.20L143.74-33.66ZM130.88-5.31L130.88-5.31Q134.53-5.31 137.47-6.88L137.47-6.88L137.47-6.88Q140.42-8.45 142.05-11.26L142.05-11.26L142.05-11.26Q143.68-14.08 143.68-17.66L143.68-17.66L143.68-17.66Q143.68-21.25 142.05-24.03L142.05-24.03L142.05-24.03Q140.42-26.82 137.50-28.38L137.50-28.38L137.50-28.38Q134.59-29.95 130.88-29.95L130.88-29.95L130.88-29.95Q127.23-29.95 124.32-28.42L124.32-28.42L124.32-28.42Q121.41-26.88 119.78-24.06L119.78-24.06L119.78-24.06Q118.14-21.25 118.14-17.66L118.14-17.66L118.14-17.66Q118.14-14.08 119.78-11.26L119.78-11.26L119.78-11.26Q121.41-8.45 124.32-6.88L124.32-6.88L124.32-6.88Q127.23-5.31 130.88-5.31L130.88-5.31ZM165.18-27.07L165.18-27.07Q166.78-30.46 169.95-32.19L169.95-32.19L169.95-32.19Q173.12-33.92 177.79-33.92L177.79-33.92L177.79-29.50L176.70-29.57L176.70-29.57Q171.39-29.57 168.38-26.30L168.38-26.30L168.38-26.30Q165.38-23.04 165.38-17.15L165.38-17.15L165.38 0L160.83 0L160.83-33.66L165.18-33.66L165.18-27.07ZM198.27-33.92L198.27-33.92Q204.86-33.92 208.38-30.62L208.38-30.62L208.38-30.62Q211.90-27.33 211.90-20.86L211.90-20.86L211.90 0L207.55 0L207.55-5.25L207.55-5.25Q206.02-2.62 203.04-1.15L203.04-1.15L203.04-1.15Q200.06 0.32 195.97 0.32L195.97 0.32L195.97 0.32Q190.34 0.32 187.01-2.37L187.01-2.37L187.01-2.37Q183.68-5.06 183.68-9.47L183.68-9.47L183.68-9.47Q183.68-13.76 186.78-16.38L186.78-16.38L186.78-16.38Q189.89-19.01 196.67-19.01L196.67-19.01L207.36-19.01L207.36-21.06L207.36-21.06Q207.36-25.41 204.93-27.68L204.93-27.68L204.93-27.68Q202.50-29.95 197.82-29.95L197.82-29.95L197.82-29.95Q194.62-29.95 191.68-28.90L191.68-28.90L191.68-28.90Q188.74-27.84 186.62-25.98L186.62-25.98L184.58-29.38L184.58-29.38Q187.14-31.55 190.72-32.74L190.72-32.74L190.72-32.74Q194.30-33.92 198.27-33.92L198.27-33.92ZM196.67-3.26L196.67-3.26Q200.51-3.26 203.26-5.02L203.26-5.02L203.26-5.02Q206.02-6.78 207.36-10.11L207.36-10.11L207.36-15.62L196.80-15.62L196.80-15.62Q188.16-15.62 188.16-9.60L188.16-9.60L188.16-9.60Q188.16-6.66 190.40-4.96L190.40-4.96L190.40-4.96Q192.64-3.26 196.67-3.26L196.67-3.26ZM266.24-33.92L266.24-33.92Q272.58-33.92 276.19-30.27L276.19-30.27L276.19-30.27Q279.81-26.62 279.81-19.52L279.81-19.52L279.81 0L275.26 0L275.26-19.07L275.26-19.07Q275.26-24.32 272.74-27.07L272.74-27.07L272.74-27.07Q270.21-29.82 265.60-29.82L265.60-29.82L265.60-29.82Q260.35-29.82 257.34-26.59L257.34-26.59L257.34-26.59Q254.34-23.36 254.34-17.66L254.34-17.66L254.34 0L249.79 0L249.79-19.07L249.79-19.07Q249.79-24.32 247.26-27.07L247.26-27.07L247.26-27.07Q244.74-29.82 240.06-29.82L240.06-29.82L240.06-29.82Q234.88-29.82 231.84-26.59L231.84-26.59L231.84-26.59Q228.80-23.36 228.80-17.66L228.80-17.66L228.80 0L224.26 0L224.26-33.66L228.61-33.66L228.61-27.52L228.61-27.52Q230.40-30.59 233.60-32.26L233.60-32.26L233.60-32.26Q236.80-33.92 240.96-33.92L240.96-33.92L240.96-33.92Q245.18-33.92 248.29-32.13L248.29-32.13L248.29-32.13Q251.39-30.34 252.93-26.82L252.93-26.82L252.93-26.82Q254.78-30.14 258.27-32.03L258.27-32.03L258.27-32.03Q261.76-33.92 266.24-33.92L266.24-33.92Z" fill="url(#editing-shadow-gradient2)"></path></g></g></g><style>text {
  font-size: 64px;
  font-family: Arial Black;
  dominant-baseline: central;
  text-anchor: middle;
}</style></svg>